<mxfile host="app.diagrams.net" modified="2021-05-23T13:08:55.169Z" agent="5.0 (Windows NT 10.0; Win64; x64) AppleWebKit/537.36 (KHTML, like Gecko) Chrome/90.0.4430.212 Safari/537.36" etag="oP_7JtV2jecAyBv4yXsk" version="14.7.0" type="github">
  <diagram id="5HvXmdemYPGVWAjicAiv" name="Page-1">
    <mxGraphModel dx="2333" dy="1801" grid="1" gridSize="10" guides="1" tooltips="1" connect="1" arrows="1" fold="1" page="1" pageScale="1" pageWidth="850" pageHeight="1100" math="0" shadow="0">
      <root>
        <mxCell id="0" />
        <mxCell id="1" parent="0" />
        <mxCell id="tMEY3OnreSVDcmj0HgLD-92" value="rid" style="ellipse;whiteSpace=wrap;html=1;rounded=1;fontSize=13.3;fontColor=#333333;strokeColor=#5e5e5e;strokeWidth=2.3;spacing=3.8;arcSize=0;fillColor=#FF6666;" vertex="1" parent="1">
          <mxGeometry x="605" y="-490" width="120" height="60" as="geometry" />
        </mxCell>
        <UserObject label="user id" lucidchartObjectId="8EZEE~NKDvmt" id="tMEY3OnreSVDcmj0HgLD-65">
          <mxCell style="html=1;overflow=block;blockSpacing=1;whiteSpace=wrap;ellipse;whiteSpace=wrap;fontSize=13.3;fontColor=#333333;spacing=3.8;strokeColor=#5e5e5e;strokeOpacity=100;rounded=1;absoluteArcSize=1;arcSize=9;strokeWidth=2.3;fillColor=#FF6666;" vertex="1" parent="1">
            <mxGeometry x="-126" y="-470" width="90" height="60" as="geometry" />
          </mxCell>
        </UserObject>
        <UserObject label="previous experience" lucidchartObjectId="xXXEDjxQVdy_" id="ysSiaZfXpg_12Hf-Yozl-67">
          <mxCell style="html=1;overflow=block;blockSpacing=1;whiteSpace=wrap;ellipse;whiteSpace=wrap;fontSize=13.3;fontColor=#333333;spacing=3.8;strokeColor=#5e5e5e;strokeOpacity=100;rounded=1;absoluteArcSize=1;arcSize=9;strokeWidth=2.3;" parent="1" vertex="1">
            <mxGeometry x="349" y="143" width="101" height="75" as="geometry" />
          </mxCell>
        </UserObject>
        <mxCell id="ysSiaZfXpg_12Hf-Yozl-125" style="edgeStyle=orthogonalEdgeStyle;rounded=0;orthogonalLoop=1;jettySize=auto;html=1;exitX=0.75;exitY=0;exitDx=0;exitDy=0;entryX=0.5;entryY=1;entryDx=0;entryDy=0;" parent="1" source="ysSiaZfXpg_12Hf-Yozl-69" target="ysSiaZfXpg_12Hf-Yozl-77" edge="1">
          <mxGeometry relative="1" as="geometry" />
        </mxCell>
        <mxCell id="ysSiaZfXpg_12Hf-Yozl-127" style="edgeStyle=none;rounded=0;orthogonalLoop=1;jettySize=auto;html=1;exitX=1;exitY=0;exitDx=0;exitDy=0;entryX=0;entryY=0.5;entryDx=0;entryDy=0;" parent="1" source="ysSiaZfXpg_12Hf-Yozl-69" target="ysSiaZfXpg_12Hf-Yozl-67" edge="1">
          <mxGeometry relative="1" as="geometry" />
        </mxCell>
        <mxCell id="ysSiaZfXpg_12Hf-Yozl-129" style="edgeStyle=none;rounded=0;orthogonalLoop=1;jettySize=auto;html=1;entryX=1;entryY=0.5;entryDx=0;entryDy=0;" parent="1" source="ysSiaZfXpg_12Hf-Yozl-69" target="ysSiaZfXpg_12Hf-Yozl-128" edge="1">
          <mxGeometry relative="1" as="geometry">
            <mxPoint x="190" y="280" as="sourcePoint" />
          </mxGeometry>
        </mxCell>
        <mxCell id="ysSiaZfXpg_12Hf-Yozl-131" style="edgeStyle=none;rounded=0;orthogonalLoop=1;jettySize=auto;html=1;exitX=0;exitY=0.25;exitDx=0;exitDy=0;" parent="1" source="ysSiaZfXpg_12Hf-Yozl-69" target="ysSiaZfXpg_12Hf-Yozl-130" edge="1">
          <mxGeometry relative="1" as="geometry" />
        </mxCell>
        <mxCell id="tMEY3OnreSVDcmj0HgLD-99" style="edgeStyle=orthogonalEdgeStyle;rounded=0;orthogonalLoop=1;jettySize=auto;html=1;exitX=0.5;exitY=0;exitDx=0;exitDy=0;entryX=0.5;entryY=1;entryDx=0;entryDy=0;" edge="1" parent="1" source="ysSiaZfXpg_12Hf-Yozl-69" target="tMEY3OnreSVDcmj0HgLD-95">
          <mxGeometry relative="1" as="geometry" />
        </mxCell>
        <mxCell id="tMEY3OnreSVDcmj0HgLD-127" style="edgeStyle=none;rounded=0;orthogonalLoop=1;jettySize=auto;html=1;exitX=0.25;exitY=1;exitDx=0;exitDy=0;entryX=0.5;entryY=0;entryDx=0;entryDy=0;" edge="1" parent="1" source="ysSiaZfXpg_12Hf-Yozl-69">
          <mxGeometry relative="1" as="geometry">
            <mxPoint x="122.5" y="384" as="targetPoint" />
          </mxGeometry>
        </mxCell>
        <UserObject label="&lt;font style=&quot;font-size: 14px&quot;&gt;employee&lt;/font&gt;" lucidchartObjectId="7ZXE6CBGGA1G" id="ysSiaZfXpg_12Hf-Yozl-69">
          <mxCell style="html=1;overflow=block;blockSpacing=1;whiteSpace=wrap;;whiteSpace=wrap;fontSize=13.3;fontColor=#333333;spacing=3.8;strokeColor=#5e5e5e;strokeOpacity=100;rounded=1;absoluteArcSize=1;arcSize=0;strokeWidth=2.3;fillColor=#BAFFB0;" parent="1" vertex="1">
            <mxGeometry x="195" y="218" width="120" height="90" as="geometry" />
          </mxCell>
        </UserObject>
        <UserObject label="has" lucidchartObjectId="y2XEXrG0rETe" id="ysSiaZfXpg_12Hf-Yozl-70">
          <mxCell style="html=1;overflow=block;blockSpacing=1;whiteSpace=wrap;shape=rhombus;whiteSpace=wrap;fontSize=13.3;fontColor=#333333;spacing=3.8;strokeColor=#5e5e5e;strokeOpacity=100;rounded=1;absoluteArcSize=1;arcSize=9;strokeWidth=2.3;" parent="1" vertex="1">
            <mxGeometry x="445.5" y="285" width="115" height="98" as="geometry" />
          </mxCell>
        </UserObject>
        <mxCell id="ysSiaZfXpg_12Hf-Yozl-166" style="edgeStyle=none;rounded=0;orthogonalLoop=1;jettySize=auto;html=1;exitX=0.25;exitY=1;exitDx=0;exitDy=0;entryX=0.5;entryY=0;entryDx=0;entryDy=0;" parent="1" source="ysSiaZfXpg_12Hf-Yozl-71" target="ysSiaZfXpg_12Hf-Yozl-134" edge="1">
          <mxGeometry relative="1" as="geometry" />
        </mxCell>
        <mxCell id="ysSiaZfXpg_12Hf-Yozl-167" style="edgeStyle=none;rounded=0;orthogonalLoop=1;jettySize=auto;html=1;exitX=0.75;exitY=1;exitDx=0;exitDy=0;entryX=0.5;entryY=0;entryDx=0;entryDy=0;" parent="1" source="ysSiaZfXpg_12Hf-Yozl-71" target="ysSiaZfXpg_12Hf-Yozl-135" edge="1">
          <mxGeometry relative="1" as="geometry" />
        </mxCell>
        <mxCell id="tMEY3OnreSVDcmj0HgLD-101" style="edgeStyle=orthogonalEdgeStyle;rounded=0;orthogonalLoop=1;jettySize=auto;html=1;exitX=0.5;exitY=1;exitDx=0;exitDy=0;" edge="1" parent="1" source="ysSiaZfXpg_12Hf-Yozl-71" target="tMEY3OnreSVDcmj0HgLD-100">
          <mxGeometry relative="1" as="geometry" />
        </mxCell>
        <UserObject label="&lt;font style=&quot;font-size: 14px&quot;&gt;evaluator&lt;/font&gt;" lucidchartObjectId="Q5XEmLFZp.p-" id="ysSiaZfXpg_12Hf-Yozl-71">
          <mxCell style="html=1;overflow=block;blockSpacing=1;whiteSpace=wrap;;whiteSpace=wrap;fontSize=16.7;fontColor=#333333;spacing=3.8;strokeColor=#5e5e5e;strokeOpacity=100;rounded=1;absoluteArcSize=1;arcSize=9;strokeWidth=2.3;fillColor=#BAFFB0;" parent="1" vertex="1">
            <mxGeometry x="450" y="450" width="120" height="90" as="geometry" />
          </mxCell>
        </UserObject>
        <mxCell id="ysSiaZfXpg_12Hf-Yozl-142" style="edgeStyle=none;rounded=0;orthogonalLoop=1;jettySize=auto;html=1;exitX=1;exitY=0;exitDx=0;exitDy=0;" parent="1" source="ysSiaZfXpg_12Hf-Yozl-72" edge="1">
          <mxGeometry relative="1" as="geometry">
            <mxPoint x="770" y="-60" as="targetPoint" />
          </mxGeometry>
        </mxCell>
        <mxCell id="ysSiaZfXpg_12Hf-Yozl-144" style="edgeStyle=none;rounded=0;orthogonalLoop=1;jettySize=auto;html=1;exitX=0.75;exitY=0;exitDx=0;exitDy=0;" parent="1" source="ysSiaZfXpg_12Hf-Yozl-72" edge="1">
          <mxGeometry relative="1" as="geometry">
            <mxPoint x="680" y="-100" as="targetPoint" />
          </mxGeometry>
        </mxCell>
        <mxCell id="ysSiaZfXpg_12Hf-Yozl-145" style="edgeStyle=none;rounded=0;orthogonalLoop=1;jettySize=auto;html=1;exitX=0.5;exitY=0;exitDx=0;exitDy=0;" parent="1" source="ysSiaZfXpg_12Hf-Yozl-72" edge="1">
          <mxGeometry relative="1" as="geometry">
            <mxPoint x="580" y="-100" as="targetPoint" />
          </mxGeometry>
        </mxCell>
        <mxCell id="ysSiaZfXpg_12Hf-Yozl-148" style="edgeStyle=none;rounded=0;orthogonalLoop=1;jettySize=auto;html=1;exitX=0.75;exitY=0;exitDx=0;exitDy=0;entryX=0.359;entryY=1.036;entryDx=0;entryDy=0;entryPerimeter=0;" parent="1" source="ysSiaZfXpg_12Hf-Yozl-72" target="ysSiaZfXpg_12Hf-Yozl-140" edge="1">
          <mxGeometry relative="1" as="geometry" />
        </mxCell>
        <UserObject label="task" lucidchartObjectId="l7XEfym0CYYh" id="ysSiaZfXpg_12Hf-Yozl-72">
          <mxCell style="html=1;overflow=block;blockSpacing=1;whiteSpace=wrap;;whiteSpace=wrap;fontSize=16.7;fontColor=#333333;spacing=3.8;strokeColor=#5e5e5e;strokeOpacity=100;rounded=1;absoluteArcSize=1;arcSize=9;strokeWidth=2.3;fillColor=#BAFFB0;" parent="1" vertex="1">
            <mxGeometry x="570" y="-15" width="120" height="90" as="geometry" />
          </mxCell>
        </UserObject>
        <mxCell id="ysSiaZfXpg_12Hf-Yozl-158" style="edgeStyle=none;rounded=0;orthogonalLoop=1;jettySize=auto;html=1;exitX=1;exitY=0;exitDx=0;exitDy=0;" parent="1" source="ysSiaZfXpg_12Hf-Yozl-73" edge="1">
          <mxGeometry relative="1" as="geometry">
            <mxPoint x="890" y="255" as="targetPoint" />
          </mxGeometry>
        </mxCell>
        <mxCell id="ysSiaZfXpg_12Hf-Yozl-159" style="edgeStyle=none;rounded=0;orthogonalLoop=1;jettySize=auto;html=1;exitX=0.25;exitY=0;exitDx=0;exitDy=0;entryX=0.693;entryY=1.008;entryDx=0;entryDy=0;entryPerimeter=0;" parent="1" source="ysSiaZfXpg_12Hf-Yozl-73" target="ysSiaZfXpg_12Hf-Yozl-152" edge="1">
          <mxGeometry relative="1" as="geometry" />
        </mxCell>
        <mxCell id="ysSiaZfXpg_12Hf-Yozl-160" style="edgeStyle=none;rounded=0;orthogonalLoop=1;jettySize=auto;html=1;exitX=0;exitY=0.25;exitDx=0;exitDy=0;entryX=0.967;entryY=0.747;entryDx=0;entryDy=0;entryPerimeter=0;" parent="1" source="ysSiaZfXpg_12Hf-Yozl-73" target="ysSiaZfXpg_12Hf-Yozl-154" edge="1">
          <mxGeometry relative="1" as="geometry" />
        </mxCell>
        <mxCell id="ysSiaZfXpg_12Hf-Yozl-161" style="edgeStyle=none;rounded=0;orthogonalLoop=1;jettySize=auto;html=1;exitX=-0.006;exitY=0.672;exitDx=0;exitDy=0;entryX=0.974;entryY=0.386;entryDx=0;entryDy=0;exitPerimeter=0;entryPerimeter=0;" parent="1" source="ysSiaZfXpg_12Hf-Yozl-73" target="tMEY3OnreSVDcmj0HgLD-1" edge="1">
          <mxGeometry relative="1" as="geometry">
            <mxPoint x="716.819805153395" y="349.7867965644041" as="targetPoint" />
          </mxGeometry>
        </mxCell>
        <mxCell id="ysSiaZfXpg_12Hf-Yozl-162" style="edgeStyle=none;rounded=0;orthogonalLoop=1;jettySize=auto;html=1;exitX=0;exitY=1;exitDx=0;exitDy=0;entryX=0.707;entryY=-0.008;entryDx=0;entryDy=0;entryPerimeter=0;" parent="1" source="ysSiaZfXpg_12Hf-Yozl-73" target="ysSiaZfXpg_12Hf-Yozl-155" edge="1">
          <mxGeometry relative="1" as="geometry" />
        </mxCell>
        <mxCell id="ysSiaZfXpg_12Hf-Yozl-163" style="edgeStyle=none;rounded=0;orthogonalLoop=1;jettySize=auto;html=1;exitX=0.644;exitY=-0.017;exitDx=0;exitDy=0;entryX=0.5;entryY=1;entryDx=0;entryDy=0;exitPerimeter=0;" parent="1" source="ysSiaZfXpg_12Hf-Yozl-73" target="ysSiaZfXpg_12Hf-Yozl-164" edge="1">
          <mxGeometry relative="1" as="geometry">
            <mxPoint x="840" y="220" as="targetPoint" />
          </mxGeometry>
        </mxCell>
        <mxCell id="tMEY3OnreSVDcmj0HgLD-3" style="edgeStyle=none;rounded=0;orthogonalLoop=1;jettySize=auto;html=1;exitX=1;exitY=0.5;exitDx=0;exitDy=0;entryX=0.004;entryY=0.625;entryDx=0;entryDy=0;entryPerimeter=0;" edge="1" parent="1" source="ysSiaZfXpg_12Hf-Yozl-73" target="ysSiaZfXpg_12Hf-Yozl-150">
          <mxGeometry relative="1" as="geometry" />
        </mxCell>
        <mxCell id="tMEY3OnreSVDcmj0HgLD-4" style="edgeStyle=none;rounded=0;orthogonalLoop=1;jettySize=auto;html=1;exitX=1;exitY=1;exitDx=0;exitDy=0;entryX=0.033;entryY=0.214;entryDx=0;entryDy=0;entryPerimeter=0;" edge="1" parent="1" source="ysSiaZfXpg_12Hf-Yozl-73" target="ysSiaZfXpg_12Hf-Yozl-149">
          <mxGeometry relative="1" as="geometry" />
        </mxCell>
        <UserObject label="rating" lucidchartObjectId="G7XEPfOEBLNx" id="ysSiaZfXpg_12Hf-Yozl-73">
          <mxCell style="html=1;overflow=block;blockSpacing=1;whiteSpace=wrap;;whiteSpace=wrap;fontSize=16.7;fontColor=#333333;spacing=3.8;strokeColor=#5e5e5e;strokeOpacity=100;rounded=1;absoluteArcSize=1;arcSize=9;strokeWidth=2.3;fillColor=#BAFFB0;" parent="1" vertex="1">
            <mxGeometry x="755" y="285" width="120" height="90" as="geometry" />
          </mxCell>
        </UserObject>
        <UserObject label="has" lucidchartObjectId="Z7XEsxulapcn" id="ysSiaZfXpg_12Hf-Yozl-74">
          <mxCell style="html=1;overflow=block;blockSpacing=1;whiteSpace=wrap;shape=rhombus;whiteSpace=wrap;fontSize=13.3;fontColor=#333333;spacing=3.8;strokeColor=#5e5e5e;strokeOpacity=100;rounded=1;absoluteArcSize=1;arcSize=9;strokeWidth=2.3;" parent="1" vertex="1">
            <mxGeometry x="760" y="52" width="111" height="91" as="geometry" />
          </mxCell>
        </UserObject>
        <UserObject label="has" lucidchartObjectId="s8XE7RQrK3FT" id="ysSiaZfXpg_12Hf-Yozl-75">
          <mxCell style="html=1;overflow=block;blockSpacing=1;whiteSpace=wrap;shape=rhombus;whiteSpace=wrap;fontSize=13.3;fontColor=#333333;spacing=3.8;strokeColor=#5e5e5e;strokeOpacity=100;rounded=1;absoluteArcSize=1;arcSize=9;strokeWidth=2.3;" parent="1" vertex="1">
            <mxGeometry x="195.5" y="444" width="120" height="102" as="geometry" />
          </mxCell>
        </UserObject>
        <UserObject label="" lucidchartObjectId="K8XE4yvNzd8l" id="ysSiaZfXpg_12Hf-Yozl-76">
          <mxCell style="html=1;jettySize=18;whiteSpace=wrap;fontSize=13;strokeColor=#5E5E5E;strokeWidth=1.5;rounded=0;startArrow=none;;endArrow=block;endFill=1;;exitX=0.994;exitY=0.5;exitPerimeter=0;" parent="1" source="ysSiaZfXpg_12Hf-Yozl-70" edge="1">
            <mxGeometry width="100" height="100" relative="1" as="geometry">
              <Array as="points" />
              <mxPoint x="754" y="330" as="targetPoint" />
            </mxGeometry>
          </mxCell>
        </UserObject>
        <mxCell id="tMEY3OnreSVDcmj0HgLD-115" style="edgeStyle=orthogonalEdgeStyle;rounded=0;orthogonalLoop=1;jettySize=auto;html=1;exitX=1;exitY=0.5;exitDx=0;exitDy=0;entryX=0;entryY=0.5;entryDx=0;entryDy=0;" edge="1" parent="1" source="ysSiaZfXpg_12Hf-Yozl-77" target="ysSiaZfXpg_12Hf-Yozl-72">
          <mxGeometry relative="1" as="geometry" />
        </mxCell>
        <UserObject label="has" lucidchartObjectId="T8XEUwpfwcmA" id="ysSiaZfXpg_12Hf-Yozl-77">
          <mxCell style="html=1;overflow=block;blockSpacing=1;whiteSpace=wrap;shape=rhombus;whiteSpace=wrap;fontSize=13.3;fontColor=#333333;spacing=3.8;strokeColor=#5e5e5e;strokeOpacity=100;rounded=1;absoluteArcSize=1;arcSize=9;strokeWidth=2.3;" parent="1" vertex="1">
            <mxGeometry x="285" y="-14.75" width="120" height="89.5" as="geometry" />
          </mxCell>
        </UserObject>
        <UserObject label="" lucidchartObjectId="L9XEV7jBEAmd" id="ysSiaZfXpg_12Hf-Yozl-80">
          <mxCell style="html=1;jettySize=18;whiteSpace=wrap;fontSize=13;strokeColor=#5E5E5E;strokeWidth=1.5;rounded=1;arcSize=12;edgeStyle=orthogonalEdgeStyle;startArrow=none;;endArrow=block;endFill=1;;exitX=1.009;exitY=0.5;exitPerimeter=0;entryX=0.006;entryY=0.5;entryPerimeter=0;" parent="1" source="ysSiaZfXpg_12Hf-Yozl-69" target="ysSiaZfXpg_12Hf-Yozl-70" edge="1">
            <mxGeometry width="100" height="100" relative="1" as="geometry">
              <Array as="points" />
            </mxGeometry>
          </mxCell>
        </UserObject>
        <UserObject label="" lucidchartObjectId="29XEo4kk4u41" id="ysSiaZfXpg_12Hf-Yozl-81">
          <mxCell style="html=1;jettySize=18;whiteSpace=wrap;fontSize=13;strokeColor=#5E5E5E;strokeWidth=1.5;rounded=1;arcSize=12;edgeStyle=orthogonalEdgeStyle;startArrow=none;;endArrow=block;endFill=1;;exitX=1;exitY=0.5;entryX=0.5;entryY=0.006;entryPerimeter=0;exitDx=0;exitDy=0;" parent="1" source="ysSiaZfXpg_12Hf-Yozl-72" target="ysSiaZfXpg_12Hf-Yozl-74" edge="1">
            <mxGeometry width="100" height="100" relative="1" as="geometry">
              <Array as="points" />
            </mxGeometry>
          </mxCell>
        </UserObject>
        <UserObject label="" lucidchartObjectId="89XEtwr.QNPB" id="ysSiaZfXpg_12Hf-Yozl-82">
          <mxCell style="html=1;jettySize=18;whiteSpace=wrap;fontSize=13;strokeColor=#5E5E5E;strokeWidth=1.5;rounded=1;arcSize=12;edgeStyle=orthogonalEdgeStyle;startArrow=none;;endArrow=block;endFill=1;;exitX=0.5;exitY=0.994;exitPerimeter=0;entryX=0.5;entryY=-0.012;entryPerimeter=0;" parent="1" source="ysSiaZfXpg_12Hf-Yozl-74" target="ysSiaZfXpg_12Hf-Yozl-73" edge="1">
            <mxGeometry width="100" height="100" relative="1" as="geometry">
              <Array as="points" />
            </mxGeometry>
          </mxCell>
        </UserObject>
        <UserObject label="" lucidchartObjectId="d-XEIeGwD9Go" id="ysSiaZfXpg_12Hf-Yozl-83">
          <mxCell style="html=1;jettySize=18;whiteSpace=wrap;fontSize=13;strokeColor=#5E5E5E;strokeWidth=1.5;rounded=1;arcSize=12;edgeStyle=orthogonalEdgeStyle;startArrow=none;;endArrow=block;endFill=1;;exitX=1.009;exitY=0.5;exitPerimeter=0;entryX=0.006;entryY=0.5;entryPerimeter=0;" parent="1" source="ysSiaZfXpg_12Hf-Yozl-71" target="ysSiaZfXpg_12Hf-Yozl-84" edge="1">
            <mxGeometry width="100" height="100" relative="1" as="geometry">
              <Array as="points" />
            </mxGeometry>
          </mxCell>
        </UserObject>
        <UserObject label="assign" lucidchartObjectId="g-XElla4Iolf" id="ysSiaZfXpg_12Hf-Yozl-84">
          <mxCell style="html=1;overflow=block;blockSpacing=1;whiteSpace=wrap;shape=rhombus;whiteSpace=wrap;fontSize=13.3;fontColor=#333333;spacing=3.8;strokeColor=#5e5e5e;strokeOpacity=100;rounded=1;absoluteArcSize=1;arcSize=9;strokeWidth=2.3;" parent="1" vertex="1">
            <mxGeometry x="755" y="444" width="120" height="102" as="geometry" />
          </mxCell>
        </UserObject>
        <UserObject label="" lucidchartObjectId="p-XE897O-S3m" id="ysSiaZfXpg_12Hf-Yozl-85">
          <mxCell style="html=1;jettySize=18;whiteSpace=wrap;fontSize=13;strokeColor=#5E5E5E;strokeWidth=1.5;rounded=1;arcSize=12;edgeStyle=orthogonalEdgeStyle;startArrow=none;;endArrow=block;endFill=1;;exitX=0.5;exitY=0.006;exitPerimeter=0;entryX=0.5;entryY=1.013;entryPerimeter=0;" parent="1" source="ysSiaZfXpg_12Hf-Yozl-84" target="ysSiaZfXpg_12Hf-Yozl-73" edge="1">
            <mxGeometry width="100" height="100" relative="1" as="geometry">
              <Array as="points" />
            </mxGeometry>
          </mxCell>
        </UserObject>
        <UserObject label="" lucidchartObjectId="C-XEn.JLqDgC" id="ysSiaZfXpg_12Hf-Yozl-86">
          <mxCell style="html=1;jettySize=18;whiteSpace=wrap;fontSize=13;strokeColor=#5E5E5E;strokeWidth=1.5;rounded=1;arcSize=12;edgeStyle=orthogonalEdgeStyle;startArrow=none;;endArrow=block;endFill=1;;exitX=0.5;exitY=1.013;exitPerimeter=0;entryX=0.5;entryY=0.006;entryPerimeter=0;" parent="1" source="ysSiaZfXpg_12Hf-Yozl-69" target="ysSiaZfXpg_12Hf-Yozl-75" edge="1">
            <mxGeometry width="100" height="100" relative="1" as="geometry">
              <Array as="points" />
            </mxGeometry>
          </mxCell>
        </UserObject>
        <UserObject label="" lucidchartObjectId="K-XEbd1OQkJn" id="ysSiaZfXpg_12Hf-Yozl-87">
          <mxCell style="html=1;jettySize=18;whiteSpace=wrap;fontSize=13;strokeColor=#5E5E5E;strokeWidth=1.5;rounded=1;arcSize=12;edgeStyle=orthogonalEdgeStyle;startArrow=none;;endArrow=block;endFill=1;;exitX=0.994;exitY=0.5;exitPerimeter=0;entryX=-0.009;entryY=0.5;entryPerimeter=0;" parent="1" source="ysSiaZfXpg_12Hf-Yozl-75" target="ysSiaZfXpg_12Hf-Yozl-71" edge="1">
            <mxGeometry width="100" height="100" relative="1" as="geometry">
              <Array as="points" />
            </mxGeometry>
          </mxCell>
        </UserObject>
        <mxCell id="tMEY3OnreSVDcmj0HgLD-7" style="edgeStyle=none;rounded=0;orthogonalLoop=1;jettySize=auto;html=1;exitX=0.5;exitY=0;exitDx=0;exitDy=0;entryX=0.5;entryY=1;entryDx=0;entryDy=0;" edge="1" parent="1" source="ysSiaZfXpg_12Hf-Yozl-88" target="tMEY3OnreSVDcmj0HgLD-6">
          <mxGeometry relative="1" as="geometry">
            <mxPoint x="-267.2857142857142" y="170" as="targetPoint" />
          </mxGeometry>
        </mxCell>
        <mxCell id="tMEY3OnreSVDcmj0HgLD-11" style="edgeStyle=none;rounded=0;orthogonalLoop=1;jettySize=auto;html=1;exitX=0.5;exitY=1;exitDx=0;exitDy=0;entryX=0.5;entryY=0;entryDx=0;entryDy=0;" edge="1" parent="1" source="ysSiaZfXpg_12Hf-Yozl-88" target="tMEY3OnreSVDcmj0HgLD-10">
          <mxGeometry relative="1" as="geometry" />
        </mxCell>
        <mxCell id="tMEY3OnreSVDcmj0HgLD-13" style="edgeStyle=none;rounded=0;orthogonalLoop=1;jettySize=auto;html=1;exitX=0.25;exitY=1;exitDx=0;exitDy=0;entryX=1;entryY=0;entryDx=0;entryDy=0;" edge="1" parent="1" source="ysSiaZfXpg_12Hf-Yozl-88" target="ysSiaZfXpg_12Hf-Yozl-97">
          <mxGeometry relative="1" as="geometry" />
        </mxCell>
        <mxCell id="tMEY3OnreSVDcmj0HgLD-14" style="edgeStyle=none;rounded=0;orthogonalLoop=1;jettySize=auto;html=1;exitX=0.75;exitY=0;exitDx=0;exitDy=0;entryX=0;entryY=1;entryDx=0;entryDy=0;" edge="1" parent="1" source="ysSiaZfXpg_12Hf-Yozl-88" target="ysSiaZfXpg_12Hf-Yozl-107">
          <mxGeometry relative="1" as="geometry" />
        </mxCell>
        <UserObject label="attendence " lucidchartObjectId="u_XEROJRTlcH" id="ysSiaZfXpg_12Hf-Yozl-88">
          <mxCell style="html=1;overflow=block;blockSpacing=1;whiteSpace=wrap;;whiteSpace=wrap;fontSize=13.3;fontColor=#333333;spacing=3.8;strokeColor=#5e5e5e;strokeOpacity=100;rounded=1;absoluteArcSize=1;arcSize=9;strokeWidth=2.3;" parent="1" vertex="1">
            <mxGeometry x="-328" y="218" width="120" height="90" as="geometry" />
          </mxCell>
        </UserObject>
        <mxCell id="tMEY3OnreSVDcmj0HgLD-15" style="edgeStyle=none;rounded=0;orthogonalLoop=1;jettySize=auto;html=1;exitX=1;exitY=0;exitDx=0;exitDy=0;" edge="1" parent="1" source="ysSiaZfXpg_12Hf-Yozl-89">
          <mxGeometry relative="1" as="geometry">
            <mxPoint x="-180" y="-100" as="targetPoint" />
          </mxGeometry>
        </mxCell>
        <mxCell id="tMEY3OnreSVDcmj0HgLD-103" value="" style="edgeStyle=orthogonalEdgeStyle;rounded=0;orthogonalLoop=1;jettySize=auto;html=1;" edge="1" parent="1" source="ysSiaZfXpg_12Hf-Yozl-89" target="tMEY3OnreSVDcmj0HgLD-102">
          <mxGeometry relative="1" as="geometry" />
        </mxCell>
        <mxCell id="tMEY3OnreSVDcmj0HgLD-107" style="edgeStyle=none;rounded=0;orthogonalLoop=1;jettySize=auto;html=1;exitX=1;exitY=1;exitDx=0;exitDy=0;" edge="1" parent="1" source="ysSiaZfXpg_12Hf-Yozl-89">
          <mxGeometry relative="1" as="geometry">
            <mxPoint x="-160" y="40" as="targetPoint" />
          </mxGeometry>
        </mxCell>
        <mxCell id="tMEY3OnreSVDcmj0HgLD-108" style="edgeStyle=none;rounded=0;orthogonalLoop=1;jettySize=auto;html=1;exitX=0;exitY=1;exitDx=0;exitDy=0;" edge="1" parent="1" source="ysSiaZfXpg_12Hf-Yozl-89">
          <mxGeometry relative="1" as="geometry">
            <mxPoint x="-380" y="50" as="targetPoint" />
          </mxGeometry>
        </mxCell>
        <UserObject label="leaves" lucidchartObjectId="idYEzEqBZMhF" id="ysSiaZfXpg_12Hf-Yozl-89">
          <mxCell style="html=1;overflow=block;blockSpacing=1;whiteSpace=wrap;;whiteSpace=wrap;fontSize=13.3;fontColor=#333333;spacing=3.8;strokeColor=#5e5e5e;strokeOpacity=100;rounded=1;absoluteArcSize=1;arcSize=9;strokeWidth=2.3;" parent="1" vertex="1">
            <mxGeometry x="-328" y="-76" width="120" height="90" as="geometry" />
          </mxCell>
        </UserObject>
        <UserObject label="holiday" lucidchartObjectId="rdYEO5oO1D6E" id="ysSiaZfXpg_12Hf-Yozl-90">
          <mxCell style="html=1;overflow=block;blockSpacing=1;whiteSpace=wrap;;whiteSpace=wrap;fontSize=13.3;fontColor=#333333;spacing=3.8;strokeColor=#5e5e5e;strokeOpacity=100;rounded=1;absoluteArcSize=1;arcSize=9;strokeWidth=2.3;fillColor=#BAFFB0;" parent="1" vertex="1">
            <mxGeometry x="-328" y="540" width="120" height="90" as="geometry" />
          </mxCell>
        </UserObject>
        <UserObject label="" lucidchartObjectId="reYEBneGYQ.p" id="ysSiaZfXpg_12Hf-Yozl-91">
          <mxCell style="html=1;jettySize=18;whiteSpace=wrap;fontSize=13;strokeColor=#5E5E5E;strokeWidth=1.5;rounded=1;arcSize=12;edgeStyle=orthogonalEdgeStyle;startArrow=none;;endArrow=block;endFill=1;;exitX=-0.009;exitY=0.5;exitPerimeter=0;entryX=0.994;entryY=0.5;entryPerimeter=0;" parent="1" source="ysSiaZfXpg_12Hf-Yozl-69" target="ysSiaZfXpg_12Hf-Yozl-92" edge="1">
            <mxGeometry width="100" height="100" relative="1" as="geometry">
              <Array as="points" />
            </mxGeometry>
          </mxCell>
        </UserObject>
        <UserObject label="has" lucidchartObjectId="BeYExaxkeAow" id="ysSiaZfXpg_12Hf-Yozl-92">
          <mxCell style="html=1;overflow=block;blockSpacing=1;whiteSpace=wrap;shape=rhombus;whiteSpace=wrap;fontSize=13.3;fontColor=#333333;spacing=3.8;strokeColor=#5e5e5e;strokeOpacity=100;rounded=1;absoluteArcSize=1;arcSize=9;strokeWidth=2.3;" parent="1" vertex="1">
            <mxGeometry x="-129" y="207.75" width="121" height="109.5" as="geometry" />
          </mxCell>
        </UserObject>
        <UserObject label="" lucidchartObjectId="ReYEJB8Z-rAT" id="ysSiaZfXpg_12Hf-Yozl-93">
          <mxCell style="html=1;jettySize=18;whiteSpace=wrap;fontSize=13;strokeColor=#5E5E5E;strokeWidth=1.5;rounded=1;arcSize=12;edgeStyle=orthogonalEdgeStyle;startArrow=none;;endArrow=block;endFill=1;;exitX=0.006;exitY=0.5;exitPerimeter=0;entryX=1.009;entryY=0.5;entryPerimeter=0;" parent="1" source="ysSiaZfXpg_12Hf-Yozl-92" target="ysSiaZfXpg_12Hf-Yozl-88" edge="1">
            <mxGeometry width="100" height="100" relative="1" as="geometry">
              <Array as="points" />
            </mxGeometry>
          </mxCell>
        </UserObject>
        <UserObject label="date" lucidchartObjectId="HfYEHzRCZ5sZ" id="ysSiaZfXpg_12Hf-Yozl-94">
          <mxCell style="html=1;overflow=block;blockSpacing=1;whiteSpace=wrap;ellipse;whiteSpace=wrap;fontSize=13.3;fontColor=#333333;spacing=3.8;strokeColor=#5e5e5e;strokeOpacity=100;rounded=1;absoluteArcSize=1;arcSize=9;strokeWidth=2.3;fillColor=#FFEDE8;" parent="1" vertex="1">
            <mxGeometry x="-246" y="690" width="105" height="75" as="geometry" />
          </mxCell>
        </UserObject>
        <UserObject label="holiday id" lucidchartObjectId="HfYE8g_5v_BL" id="ysSiaZfXpg_12Hf-Yozl-95">
          <mxCell style="html=1;overflow=block;blockSpacing=1;whiteSpace=wrap;ellipse;whiteSpace=wrap;fontSize=13.3;fontColor=#333333;spacing=3.8;strokeColor=#5e5e5e;strokeOpacity=100;rounded=1;absoluteArcSize=1;arcSize=9;strokeWidth=2.3;fillColor=#FF6666;" parent="1" vertex="1">
            <mxGeometry x="-411" y="675" width="105" height="75" as="geometry" />
          </mxCell>
        </UserObject>
        <UserObject label="descreption" lucidchartObjectId="HfYE.PhgQuBj" id="ysSiaZfXpg_12Hf-Yozl-96">
          <mxCell style="html=1;overflow=block;blockSpacing=1;whiteSpace=wrap;ellipse;whiteSpace=wrap;fontSize=13.3;fontColor=#333333;spacing=3.8;strokeColor=#5e5e5e;strokeOpacity=100;rounded=1;absoluteArcSize=1;arcSize=9;strokeWidth=2.3;fillColor=#FFEDE8;" parent="1" vertex="1">
            <mxGeometry x="-471" y="548" width="105" height="75" as="geometry" />
          </mxCell>
        </UserObject>
        <UserObject label="out time" lucidchartObjectId="DgYECu96Q96g" id="ysSiaZfXpg_12Hf-Yozl-97">
          <mxCell style="html=1;overflow=block;blockSpacing=1;whiteSpace=wrap;ellipse;whiteSpace=wrap;fontSize=13.3;fontColor=#333333;spacing=3.8;strokeColor=#5e5e5e;strokeOpacity=100;rounded=1;absoluteArcSize=1;arcSize=9;strokeWidth=2.3;" parent="1" vertex="1">
            <mxGeometry x="-426" y="341" width="105" height="75" as="geometry" />
          </mxCell>
        </UserObject>
        <UserObject label="id" lucidchartObjectId="EgYEscnEQcYi" id="ysSiaZfXpg_12Hf-Yozl-98">
          <mxCell style="html=1;overflow=block;blockSpacing=1;whiteSpace=wrap;ellipse;whiteSpace=wrap;fontSize=13.3;fontColor=#333333;spacing=3.8;strokeColor=#5e5e5e;strokeOpacity=100;rounded=1;absoluteArcSize=1;arcSize=9;strokeWidth=2.3;fillColor=#FF6666;" parent="1" vertex="1">
            <mxGeometry x="-328" y="-196" width="105" height="75" as="geometry" />
          </mxCell>
        </UserObject>
        <UserObject label="date" lucidchartObjectId="JgYEU.SWviIr" id="ysSiaZfXpg_12Hf-Yozl-99">
          <mxCell style="html=1;overflow=block;blockSpacing=1;whiteSpace=wrap;ellipse;whiteSpace=wrap;fontSize=13.3;fontColor=#333333;spacing=3.8;strokeColor=#5e5e5e;strokeOpacity=100;rounded=1;absoluteArcSize=1;arcSize=9;strokeWidth=2.3;fillColor=#FF6666;" parent="1" vertex="1">
            <mxGeometry x="-426" y="120" width="105" height="75" as="geometry" />
          </mxCell>
        </UserObject>
        <UserObject label="emp id" lucidchartObjectId="JgYETDzXMaAP" id="ysSiaZfXpg_12Hf-Yozl-100">
          <mxCell style="html=1;overflow=block;blockSpacing=1;whiteSpace=wrap;ellipse;whiteSpace=wrap;fontSize=13.3;fontColor=#333333;spacing=3.8;strokeColor=#5e5e5e;strokeOpacity=100;rounded=1;absoluteArcSize=1;arcSize=9;strokeWidth=2.3;fillColor=#FFECE8;" parent="1" vertex="1">
            <mxGeometry x="-456" y="-151" width="105" height="75" as="geometry" />
          </mxCell>
        </UserObject>
        <UserObject label="status" lucidchartObjectId="KgYEqpDPBExX" id="ysSiaZfXpg_12Hf-Yozl-101">
          <mxCell style="html=1;overflow=block;blockSpacing=1;whiteSpace=wrap;ellipse;whiteSpace=wrap;fontSize=13.3;fontColor=#333333;spacing=3.8;strokeColor=#5e5e5e;strokeOpacity=100;rounded=1;absoluteArcSize=1;arcSize=9;strokeWidth=2.3;fillColor=#FFECE8;" parent="1" vertex="1">
            <mxGeometry x="-501" y="-53" width="105" height="75" as="geometry" />
          </mxCell>
        </UserObject>
        <UserObject label="emp id" lucidchartObjectId="ZBZE09Zk1rgY" id="ysSiaZfXpg_12Hf-Yozl-107">
          <mxCell style="html=1;overflow=block;blockSpacing=1;whiteSpace=wrap;ellipse;whiteSpace=wrap;fontSize=13.3;fontColor=#333333;spacing=3.8;strokeColor=#5e5e5e;strokeOpacity=100;rounded=1;absoluteArcSize=1;arcSize=9;strokeWidth=2.3;fillColor=#FF6666;" parent="1" vertex="1">
            <mxGeometry x="-231" y="120" width="105" height="75" as="geometry" />
          </mxCell>
        </UserObject>
        <UserObject label="" lucidchartObjectId="mDZE9t6bbekU" id="ysSiaZfXpg_12Hf-Yozl-108">
          <mxCell style="html=1;jettySize=18;whiteSpace=wrap;fontSize=13;strokeColor=#5E5E5E;strokeWidth=1.5;rounded=0;startArrow=none;;endArrow=block;endFill=1;;exitX=0.5;exitY=-0.012;exitPerimeter=0;entryX=0.571;entryY=1.009;entryPerimeter=0;" parent="1" source="ysSiaZfXpg_12Hf-Yozl-89" target="ysSiaZfXpg_12Hf-Yozl-98" edge="1">
            <mxGeometry width="100" height="100" relative="1" as="geometry">
              <Array as="points" />
            </mxGeometry>
          </mxCell>
        </UserObject>
        <UserObject label="" lucidchartObjectId="UDZE0GKjN-M7" id="ysSiaZfXpg_12Hf-Yozl-109">
          <mxCell style="html=1;jettySize=18;whiteSpace=wrap;fontSize=13;strokeColor=#5E5E5E;strokeWidth=1.5;rounded=0;startArrow=none;;endArrow=block;endFill=1;;exitX=-0.009;exitY=0.048;exitPerimeter=0;entryX=0.962;entryY=0.72;entryPerimeter=0;" parent="1" source="ysSiaZfXpg_12Hf-Yozl-89" target="ysSiaZfXpg_12Hf-Yozl-100" edge="1">
            <mxGeometry width="100" height="100" relative="1" as="geometry">
              <Array as="points" />
            </mxGeometry>
          </mxCell>
        </UserObject>
        <UserObject label="" lucidchartObjectId="WDZESpZZ0cus" id="ysSiaZfXpg_12Hf-Yozl-110">
          <mxCell style="html=1;jettySize=18;whiteSpace=wrap;fontSize=13;strokeColor=#5E5E5E;strokeWidth=1.5;rounded=0;startArrow=none;;endArrow=block;endFill=1;;exitX=-0.009;exitY=0.5;exitPerimeter=0;entryX=0.971;entryY=0.3;entryPerimeter=0;" parent="1" source="ysSiaZfXpg_12Hf-Yozl-89" target="ysSiaZfXpg_12Hf-Yozl-101" edge="1">
            <mxGeometry width="100" height="100" relative="1" as="geometry">
              <Array as="points" />
            </mxGeometry>
          </mxCell>
        </UserObject>
        <UserObject label="" lucidchartObjectId="iEZEi2lbWxRQ" id="ysSiaZfXpg_12Hf-Yozl-114">
          <mxCell style="html=1;jettySize=18;whiteSpace=wrap;fontSize=13;strokeColor=#5E5E5E;strokeWidth=1.5;rounded=0;startArrow=none;;endArrow=block;endFill=1;;exitX=0.071;exitY=-0.012;exitPerimeter=0;entryX=0.764;entryY=0.941;entryPerimeter=0;" parent="1" source="ysSiaZfXpg_12Hf-Yozl-88" target="ysSiaZfXpg_12Hf-Yozl-99" edge="1">
            <mxGeometry width="100" height="100" relative="1" as="geometry">
              <Array as="points" />
            </mxGeometry>
          </mxCell>
        </UserObject>
        <UserObject label="" lucidchartObjectId="pEZELl2p3IL0" id="ysSiaZfXpg_12Hf-Yozl-115">
          <mxCell style="html=1;jettySize=18;whiteSpace=wrap;fontSize=13;strokeColor=#5E5E5E;strokeWidth=1.5;rounded=0;startArrow=none;;endArrow=block;endFill=1;;exitX=0.64;exitY=1.013;exitPerimeter=0;entryX=0.232;entryY=0.062;entryPerimeter=0;" parent="1" source="ysSiaZfXpg_12Hf-Yozl-90" target="ysSiaZfXpg_12Hf-Yozl-94" edge="1">
            <mxGeometry width="100" height="100" relative="1" as="geometry">
              <Array as="points" />
            </mxGeometry>
          </mxCell>
        </UserObject>
        <UserObject label="" lucidchartObjectId="tEZEB2-HeIJP" id="ysSiaZfXpg_12Hf-Yozl-116">
          <mxCell style="html=1;jettySize=18;whiteSpace=wrap;fontSize=13;strokeColor=#5E5E5E;strokeWidth=1.5;rounded=0;startArrow=none;;endArrow=block;endFill=1;;exitX=0.168;exitY=1.013;exitPerimeter=0;entryX=0.764;entryY=0.059;entryPerimeter=0;" parent="1" source="ysSiaZfXpg_12Hf-Yozl-90" target="ysSiaZfXpg_12Hf-Yozl-95" edge="1">
            <mxGeometry width="100" height="100" relative="1" as="geometry">
              <Array as="points" />
            </mxGeometry>
          </mxCell>
        </UserObject>
        <UserObject label="" lucidchartObjectId="uEZEwu2bpiDJ" id="ysSiaZfXpg_12Hf-Yozl-117">
          <mxCell style="html=1;jettySize=18;whiteSpace=wrap;fontSize=13;strokeColor=#5E5E5E;strokeWidth=1.5;rounded=0;startArrow=none;;endArrow=block;endFill=1;;exitX=-0.009;exitY=0.5;exitPerimeter=0;entryX=1.011;entryY=0.5;entryPerimeter=0;" parent="1" source="ysSiaZfXpg_12Hf-Yozl-90" target="ysSiaZfXpg_12Hf-Yozl-96" edge="1">
            <mxGeometry width="100" height="100" relative="1" as="geometry">
              <Array as="points" />
            </mxGeometry>
          </mxCell>
        </UserObject>
        <UserObject label="" lucidchartObjectId="xFZEmf7txGYj" id="ysSiaZfXpg_12Hf-Yozl-122">
          <mxCell style="html=1;jettySize=18;whiteSpace=wrap;fontSize=13;strokeColor=#5E5E5E;strokeWidth=1.5;rounded=0;startArrow=none;;endArrow=block;endFill=1;;exitX=0.766;exitY=1.013;exitPerimeter=0;entryX=0.5;entryY=-0.014;entryPerimeter=0;" parent="1" source="ysSiaZfXpg_12Hf-Yozl-69" edge="1">
            <mxGeometry width="100" height="100" relative="1" as="geometry">
              <Array as="points" />
              <mxPoint x="360" y="348.9079999999999" as="targetPoint" />
            </mxGeometry>
          </mxCell>
        </UserObject>
        <UserObject label="" lucidchartObjectId="XFZEMK29fzNZ" id="ysSiaZfXpg_12Hf-Yozl-124">
          <mxCell style="html=1;jettySize=18;whiteSpace=wrap;fontSize=13;strokeColor=#5E5E5E;strokeWidth=1.5;rounded=0;startArrow=none;;endArrow=block;endFill=1;;exitX=0.185;exitY=-0.012;exitPerimeter=0;entryX=0.733;entryY=0.98;entryDx=0;entryDy=0;entryPerimeter=0;" parent="1" source="ysSiaZfXpg_12Hf-Yozl-69" target="tMEY3OnreSVDcmj0HgLD-272" edge="1">
            <mxGeometry width="100" height="100" relative="1" as="geometry">
              <Array as="points" />
              <mxPoint x="180" y="150" as="targetPoint" />
            </mxGeometry>
          </mxCell>
        </UserObject>
        <UserObject label="qualification" lucidchartObjectId="wXXEbgnNHQ6W" id="ysSiaZfXpg_12Hf-Yozl-128">
          <mxCell style="html=1;overflow=block;blockSpacing=1;whiteSpace=wrap;ellipse;whiteSpace=wrap;fontSize=13.3;fontColor=#333333;spacing=3.8;strokeColor=#5e5e5e;strokeOpacity=100;rounded=1;absoluteArcSize=1;arcSize=9;strokeWidth=2.3;fillColor=#FFECE8;" parent="1" vertex="1">
            <mxGeometry x="10" y="281" width="105" height="60" as="geometry" />
          </mxCell>
        </UserObject>
        <UserObject label="name" lucidchartObjectId="dXXEF-Iy0I9N" id="ysSiaZfXpg_12Hf-Yozl-130">
          <mxCell style="html=1;overflow=block;blockSpacing=1;whiteSpace=wrap;ellipse;whiteSpace=wrap;fontSize=13.3;fontColor=#333333;spacing=3.8;strokeColor=#5e5e5e;strokeOpacity=100;rounded=1;absoluteArcSize=1;arcSize=9;strokeWidth=2.3;fillColor=#FFECE8;" parent="1" vertex="1">
            <mxGeometry x="10" y="164" width="105" height="66" as="geometry" />
          </mxCell>
        </UserObject>
        <UserObject label="emp id" lucidchartObjectId="xXXEDjxQVdy_" id="ysSiaZfXpg_12Hf-Yozl-134">
          <mxCell style="html=1;overflow=block;blockSpacing=1;whiteSpace=wrap;ellipse;whiteSpace=wrap;fontSize=13.3;fontColor=#333333;spacing=3.8;strokeColor=#5e5e5e;strokeOpacity=100;rounded=1;absoluteArcSize=1;arcSize=9;strokeWidth=2.3;fillColor=#FFAABB;" parent="1" vertex="1">
            <mxGeometry x="405" y="590" width="101" height="75" as="geometry" />
          </mxCell>
        </UserObject>
        <UserObject label="rid" lucidchartObjectId="xXXEDjxQVdy_" id="ysSiaZfXpg_12Hf-Yozl-135">
          <mxCell style="html=1;overflow=block;blockSpacing=1;whiteSpace=wrap;ellipse;whiteSpace=wrap;fontSize=13.3;fontColor=#333333;spacing=3.8;strokeColor=#5e5e5e;strokeOpacity=100;rounded=1;absoluteArcSize=1;arcSize=9;strokeWidth=2.3;fillColor=#FF6666;" parent="1" vertex="1">
            <mxGeometry x="519" y="590" width="101" height="75" as="geometry" />
          </mxCell>
        </UserObject>
        <UserObject label="task id" lucidchartObjectId="8EZEE~NKDvmt" id="ysSiaZfXpg_12Hf-Yozl-139">
          <mxCell style="html=1;overflow=block;blockSpacing=1;whiteSpace=wrap;ellipse;whiteSpace=wrap;fontSize=13.3;fontColor=#333333;spacing=3.8;strokeColor=#5e5e5e;strokeOpacity=100;rounded=1;absoluteArcSize=1;arcSize=9;strokeWidth=2.3;fillColor=#FF6666;" parent="1" vertex="1">
            <mxGeometry x="770" y="-100" width="90" height="60" as="geometry" />
          </mxCell>
        </UserObject>
        <UserObject label="emp id" lucidchartObjectId="8EZEE~NKDvmt" id="ysSiaZfXpg_12Hf-Yozl-140">
          <mxCell style="html=1;overflow=block;blockSpacing=1;whiteSpace=wrap;ellipse;whiteSpace=wrap;fontSize=13.3;fontColor=#333333;spacing=3.8;strokeColor=#5e5e5e;strokeOpacity=100;rounded=1;absoluteArcSize=1;arcSize=9;strokeWidth=2.3;fillColor=#FFAABB;" parent="1" vertex="1">
            <mxGeometry x="720" y="-170" width="90" height="60" as="geometry" />
          </mxCell>
        </UserObject>
        <UserObject label="task detail" lucidchartObjectId="8EZEE~NKDvmt" id="ysSiaZfXpg_12Hf-Yozl-141">
          <mxCell style="html=1;overflow=block;blockSpacing=1;whiteSpace=wrap;ellipse;whiteSpace=wrap;fontSize=13.3;fontColor=#333333;spacing=3.8;strokeColor=#5e5e5e;strokeOpacity=100;rounded=1;absoluteArcSize=1;arcSize=9;strokeWidth=2.3;fillColor=#FFECE8;" parent="1" vertex="1">
            <mxGeometry x="520" y="-160" width="90" height="60" as="geometry" />
          </mxCell>
        </UserObject>
        <UserObject label="timeline" lucidchartObjectId="8EZEE~NKDvmt" id="ysSiaZfXpg_12Hf-Yozl-146">
          <mxCell style="html=1;overflow=block;blockSpacing=1;whiteSpace=wrap;ellipse;whiteSpace=wrap;fontSize=13.3;fontColor=#333333;spacing=3.8;strokeColor=#5e5e5e;strokeOpacity=100;rounded=1;absoluteArcSize=1;arcSize=9;strokeWidth=2.3;fillColor=#FFECE8;" parent="1" vertex="1">
            <mxGeometry x="620" y="-160" width="90" height="60" as="geometry" />
          </mxCell>
        </UserObject>
        <UserObject label="accuracy&lt;br&gt;score" lucidchartObjectId="8EZEE~NKDvmt" id="ysSiaZfXpg_12Hf-Yozl-149">
          <mxCell style="html=1;overflow=block;blockSpacing=1;whiteSpace=wrap;ellipse;whiteSpace=wrap;fontSize=13.3;fontColor=#333333;spacing=3.8;strokeColor=#5e5e5e;strokeOpacity=100;rounded=1;absoluteArcSize=1;arcSize=9;strokeWidth=2.3;fillColor=#FFEDE8;" parent="1" vertex="1">
            <mxGeometry x="890" y="378" width="90" height="60" as="geometry" />
          </mxCell>
        </UserObject>
        <UserObject label="self score" lucidchartObjectId="8EZEE~NKDvmt" id="ysSiaZfXpg_12Hf-Yozl-150">
          <mxCell style="html=1;overflow=block;blockSpacing=1;whiteSpace=wrap;ellipse;whiteSpace=wrap;fontSize=13.3;fontColor=#333333;spacing=3.8;strokeColor=#5e5e5e;strokeOpacity=100;rounded=1;absoluteArcSize=1;arcSize=9;strokeWidth=2.3;fillColor=#FFEDE8;" parent="1" vertex="1">
            <mxGeometry x="900" y="290" width="90" height="60" as="geometry" />
          </mxCell>
        </UserObject>
        <UserObject label="id" lucidchartObjectId="8EZEE~NKDvmt" id="ysSiaZfXpg_12Hf-Yozl-151">
          <mxCell style="html=1;overflow=block;blockSpacing=1;whiteSpace=wrap;ellipse;whiteSpace=wrap;fontSize=13.3;fontColor=#333333;spacing=3.8;strokeColor=#5e5e5e;strokeOpacity=100;rounded=1;absoluteArcSize=1;arcSize=9;strokeWidth=2.3;fillColor=#FF6666;" parent="1" vertex="1">
            <mxGeometry x="870" y="195" width="90" height="60" as="geometry" />
          </mxCell>
        </UserObject>
        <UserObject label="emp_id" lucidchartObjectId="8EZEE~NKDvmt" id="ysSiaZfXpg_12Hf-Yozl-152">
          <mxCell style="html=1;overflow=block;blockSpacing=1;whiteSpace=wrap;ellipse;whiteSpace=wrap;fontSize=13.3;fontColor=#333333;spacing=3.8;strokeColor=#5e5e5e;strokeOpacity=100;rounded=1;absoluteArcSize=1;arcSize=9;strokeWidth=2.3;fillColor=#FFEDE8;" parent="1" vertex="1">
            <mxGeometry x="710" y="195" width="90" height="60" as="geometry" />
          </mxCell>
        </UserObject>
        <UserObject label="evaluator&lt;br&gt;&amp;nbsp;id" lucidchartObjectId="8EZEE~NKDvmt" id="ysSiaZfXpg_12Hf-Yozl-154">
          <mxCell style="html=1;overflow=block;blockSpacing=1;whiteSpace=wrap;ellipse;whiteSpace=wrap;fontSize=13.3;fontColor=#333333;spacing=3.8;strokeColor=#5e5e5e;strokeOpacity=100;rounded=1;absoluteArcSize=1;arcSize=9;strokeWidth=2.3;fillColor=#FFEDE8;" parent="1" vertex="1">
            <mxGeometry x="630" y="248" width="90" height="60" as="geometry" />
          </mxCell>
        </UserObject>
        <UserObject label="date &lt;br&gt;recorded" lucidchartObjectId="8EZEE~NKDvmt" id="ysSiaZfXpg_12Hf-Yozl-155">
          <mxCell style="html=1;overflow=block;blockSpacing=1;whiteSpace=wrap;ellipse;whiteSpace=wrap;fontSize=13.3;fontColor=#333333;spacing=3.8;strokeColor=#5e5e5e;strokeOpacity=100;rounded=1;absoluteArcSize=1;arcSize=9;strokeWidth=2.3;fillColor=#FFEDE8;" parent="1" vertex="1">
            <mxGeometry x="670" y="410" width="90" height="60" as="geometry" />
          </mxCell>
        </UserObject>
        <UserObject label="task id" lucidchartObjectId="8EZEE~NKDvmt" id="ysSiaZfXpg_12Hf-Yozl-164">
          <mxCell style="html=1;overflow=block;blockSpacing=1;whiteSpace=wrap;ellipse;whiteSpace=wrap;fontSize=13.3;fontColor=#333333;spacing=3.8;strokeColor=#5e5e5e;strokeOpacity=100;rounded=1;absoluteArcSize=1;arcSize=9;strokeWidth=2.3;fillColor=#FFAABB;" parent="1" vertex="1">
            <mxGeometry x="791" y="150.5" width="90" height="60" as="geometry" />
          </mxCell>
        </UserObject>
        <UserObject label="evaluator&lt;br&gt;&amp;nbsp;score" lucidchartObjectId="8EZEE~NKDvmt" id="tMEY3OnreSVDcmj0HgLD-1">
          <mxCell style="html=1;overflow=block;blockSpacing=1;whiteSpace=wrap;ellipse;whiteSpace=wrap;fontSize=13.3;fontColor=#333333;spacing=3.8;strokeColor=#5e5e5e;strokeOpacity=100;rounded=1;absoluteArcSize=1;arcSize=9;strokeWidth=2.3;fillColor=#FFEDE8;" vertex="1" parent="1">
            <mxGeometry x="620" y="335" width="90" height="60" as="geometry" />
          </mxCell>
        </UserObject>
        <mxCell id="tMEY3OnreSVDcmj0HgLD-9" style="edgeStyle=none;rounded=0;orthogonalLoop=1;jettySize=auto;html=1;exitX=0.5;exitY=0;exitDx=0;exitDy=0;entryX=0.5;entryY=1;entryDx=0;entryDy=0;" edge="1" parent="1" source="tMEY3OnreSVDcmj0HgLD-6" target="ysSiaZfXpg_12Hf-Yozl-89">
          <mxGeometry relative="1" as="geometry" />
        </mxCell>
        <UserObject label="check for" lucidchartObjectId="s8XE7RQrK3FT" id="tMEY3OnreSVDcmj0HgLD-6">
          <mxCell style="html=1;overflow=block;blockSpacing=1;whiteSpace=wrap;shape=rhombus;whiteSpace=wrap;fontSize=13.3;fontColor=#333333;spacing=3.8;strokeColor=#5e5e5e;strokeOpacity=100;rounded=1;absoluteArcSize=1;arcSize=9;strokeWidth=2.3;" vertex="1" parent="1">
            <mxGeometry x="-324.75" y="70" width="113.5" height="94" as="geometry" />
          </mxCell>
        </UserObject>
        <mxCell id="tMEY3OnreSVDcmj0HgLD-12" style="edgeStyle=none;rounded=0;orthogonalLoop=1;jettySize=auto;html=1;exitX=0.5;exitY=1;exitDx=0;exitDy=0;entryX=0.5;entryY=0;entryDx=0;entryDy=0;" edge="1" parent="1" source="tMEY3OnreSVDcmj0HgLD-10" target="ysSiaZfXpg_12Hf-Yozl-90">
          <mxGeometry relative="1" as="geometry" />
        </mxCell>
        <UserObject label="check for" lucidchartObjectId="s8XE7RQrK3FT" id="tMEY3OnreSVDcmj0HgLD-10">
          <mxCell style="html=1;overflow=block;blockSpacing=1;whiteSpace=wrap;shape=rhombus;whiteSpace=wrap;fontSize=13.3;fontColor=#333333;spacing=3.8;strokeColor=#5e5e5e;strokeOpacity=100;rounded=1;absoluteArcSize=1;arcSize=9;strokeWidth=2.3;" vertex="1" parent="1">
            <mxGeometry x="-329.75" y="390" width="123.5" height="99" as="geometry" />
          </mxCell>
        </UserObject>
        <UserObject label="approval&amp;nbsp;" lucidchartObjectId="EgYEscnEQcYi" id="tMEY3OnreSVDcmj0HgLD-16">
          <mxCell style="html=1;overflow=block;blockSpacing=1;whiteSpace=wrap;ellipse;whiteSpace=wrap;fontSize=13.3;fontColor=#333333;spacing=3.8;strokeColor=#5e5e5e;strokeOpacity=100;rounded=1;absoluteArcSize=1;arcSize=9;strokeWidth=2.3;fillColor=#FFECE8;" vertex="1" parent="1">
            <mxGeometry x="-200" y="-170" width="105" height="75" as="geometry" />
          </mxCell>
        </UserObject>
        <mxCell id="tMEY3OnreSVDcmj0HgLD-36" style="edgeStyle=none;rounded=0;orthogonalLoop=1;jettySize=auto;html=1;exitX=0.5;exitY=0;exitDx=0;exitDy=0;" edge="1" parent="1" source="tMEY3OnreSVDcmj0HgLD-25">
          <mxGeometry relative="1" as="geometry">
            <mxPoint x="255" y="-430" as="targetPoint" />
          </mxGeometry>
        </mxCell>
        <mxCell id="tMEY3OnreSVDcmj0HgLD-75" style="edgeStyle=none;rounded=0;orthogonalLoop=1;jettySize=auto;html=1;exitX=0.75;exitY=0;exitDx=0;exitDy=0;entryX=0;entryY=1;entryDx=0;entryDy=0;" edge="1" parent="1" source="tMEY3OnreSVDcmj0HgLD-25" target="tMEY3OnreSVDcmj0HgLD-30">
          <mxGeometry relative="1" as="geometry" />
        </mxCell>
        <mxCell id="tMEY3OnreSVDcmj0HgLD-78" style="edgeStyle=none;rounded=0;orthogonalLoop=1;jettySize=auto;html=1;exitX=1;exitY=0.5;exitDx=0;exitDy=0;entryX=0;entryY=0.5;entryDx=0;entryDy=0;" edge="1" parent="1" source="tMEY3OnreSVDcmj0HgLD-25" target="tMEY3OnreSVDcmj0HgLD-77">
          <mxGeometry relative="1" as="geometry" />
        </mxCell>
        <mxCell id="tMEY3OnreSVDcmj0HgLD-274" value="" style="edgeStyle=none;rounded=0;orthogonalLoop=1;jettySize=auto;html=1;fontSize=13.3;fontColor=#333333;" edge="1" parent="1" source="tMEY3OnreSVDcmj0HgLD-25" target="tMEY3OnreSVDcmj0HgLD-259">
          <mxGeometry relative="1" as="geometry" />
        </mxCell>
        <UserObject label="&lt;font style=&quot;font-size: 14px&quot;&gt;user role&lt;/font&gt;" lucidchartObjectId="rdYEO5oO1D6E" id="tMEY3OnreSVDcmj0HgLD-25">
          <mxCell style="html=1;overflow=block;blockSpacing=1;whiteSpace=wrap;;whiteSpace=wrap;fontSize=13.3;fontColor=#333333;spacing=3.8;strokeColor=#5e5e5e;strokeOpacity=100;rounded=1;absoluteArcSize=1;arcSize=9;strokeWidth=2.3;fillColor=#BAFFB0;" vertex="1" parent="1">
            <mxGeometry x="195" y="-380" width="120" height="90" as="geometry" />
          </mxCell>
        </UserObject>
        <UserObject label="role id" lucidchartObjectId="8EZEE~NKDvmt" id="tMEY3OnreSVDcmj0HgLD-30">
          <mxCell style="html=1;overflow=block;blockSpacing=1;whiteSpace=wrap;ellipse;whiteSpace=wrap;fontSize=13.3;fontColor=#333333;spacing=3.8;strokeColor=#5e5e5e;strokeOpacity=100;rounded=1;absoluteArcSize=1;arcSize=9;strokeWidth=2.3;" vertex="1" parent="1">
            <mxGeometry x="380" y="-480" width="90" height="60" as="geometry" />
          </mxCell>
        </UserObject>
        <UserObject label="desc" lucidchartObjectId="8EZEE~NKDvmt" id="tMEY3OnreSVDcmj0HgLD-31">
          <mxCell style="html=1;overflow=block;blockSpacing=1;whiteSpace=wrap;ellipse;whiteSpace=wrap;fontSize=13.3;fontColor=#333333;spacing=3.8;strokeColor=#5e5e5e;strokeOpacity=100;rounded=1;absoluteArcSize=1;arcSize=9;strokeWidth=2.3;" vertex="1" parent="1">
            <mxGeometry x="210" y="-490" width="90" height="60" as="geometry" />
          </mxCell>
        </UserObject>
        <mxCell id="tMEY3OnreSVDcmj0HgLD-33" style="edgeStyle=none;rounded=0;orthogonalLoop=1;jettySize=auto;html=1;entryX=0.5;entryY=1;entryDx=0;entryDy=0;" edge="1" parent="1" source="tMEY3OnreSVDcmj0HgLD-31" target="tMEY3OnreSVDcmj0HgLD-31">
          <mxGeometry relative="1" as="geometry" />
        </mxCell>
        <UserObject label="view&lt;br&gt;permission" lucidchartObjectId="xXXEDjxQVdy_" id="tMEY3OnreSVDcmj0HgLD-48">
          <mxCell style="html=1;overflow=block;blockSpacing=1;whiteSpace=wrap;ellipse;whiteSpace=wrap;fontSize=13.3;fontColor=#333333;spacing=3.8;strokeColor=#5e5e5e;strokeOpacity=100;rounded=1;absoluteArcSize=1;arcSize=9;strokeWidth=2.3;fillColor=#FFECE8;" vertex="1" parent="1">
            <mxGeometry x="1000" y="-380" width="101" height="75" as="geometry" />
          </mxCell>
        </UserObject>
        <mxCell id="tMEY3OnreSVDcmj0HgLD-49" value="" style="edgeStyle=none;rounded=0;orthogonalLoop=1;jettySize=auto;html=1;" edge="1" parent="1" target="tMEY3OnreSVDcmj0HgLD-48">
          <mxGeometry relative="1" as="geometry">
            <mxPoint x="853.0000000000005" y="-342.5" as="sourcePoint" />
          </mxGeometry>
        </mxCell>
        <mxCell id="tMEY3OnreSVDcmj0HgLD-54" value="form id" style="ellipse;whiteSpace=wrap;html=1;rounded=1;fontSize=13.3;fontColor=#333333;strokeColor=#5e5e5e;strokeWidth=2.3;spacing=3.8;arcSize=0;fillColor=#FFECE8;" vertex="1" parent="1">
          <mxGeometry x="730" y="-530" width="120" height="60" as="geometry" />
        </mxCell>
        <mxCell id="tMEY3OnreSVDcmj0HgLD-58" style="edgeStyle=none;rounded=0;orthogonalLoop=1;jettySize=auto;html=1;exitX=0.5;exitY=0;exitDx=0;exitDy=0;" edge="1" parent="1" source="tMEY3OnreSVDcmj0HgLD-55">
          <mxGeometry relative="1" as="geometry">
            <mxPoint x="-202" y="-430" as="targetPoint" />
          </mxGeometry>
        </mxCell>
        <mxCell id="tMEY3OnreSVDcmj0HgLD-59" style="edgeStyle=none;rounded=0;orthogonalLoop=1;jettySize=auto;html=1;exitX=0;exitY=0.5;exitDx=0;exitDy=0;entryX=1;entryY=0.5;entryDx=0;entryDy=0;" edge="1" parent="1" source="tMEY3OnreSVDcmj0HgLD-55" target="tMEY3OnreSVDcmj0HgLD-57">
          <mxGeometry relative="1" as="geometry" />
        </mxCell>
        <mxCell id="tMEY3OnreSVDcmj0HgLD-63" style="edgeStyle=none;rounded=0;orthogonalLoop=1;jettySize=auto;html=1;exitX=0;exitY=0;exitDx=0;exitDy=0;" edge="1" parent="1" source="tMEY3OnreSVDcmj0HgLD-55">
          <mxGeometry relative="1" as="geometry">
            <mxPoint x="-320" y="-420" as="targetPoint" />
          </mxGeometry>
        </mxCell>
        <mxCell id="tMEY3OnreSVDcmj0HgLD-66" style="edgeStyle=none;rounded=0;orthogonalLoop=1;jettySize=auto;html=1;exitX=1;exitY=0;exitDx=0;exitDy=0;entryX=0.5;entryY=1;entryDx=0;entryDy=0;" edge="1" parent="1" source="tMEY3OnreSVDcmj0HgLD-55" target="tMEY3OnreSVDcmj0HgLD-65">
          <mxGeometry relative="1" as="geometry" />
        </mxCell>
        <mxCell id="tMEY3OnreSVDcmj0HgLD-73" style="edgeStyle=none;rounded=0;orthogonalLoop=1;jettySize=auto;html=1;exitX=1;exitY=0.5;exitDx=0;exitDy=0;entryX=0;entryY=0.5;entryDx=0;entryDy=0;" edge="1" parent="1" source="tMEY3OnreSVDcmj0HgLD-55" target="tMEY3OnreSVDcmj0HgLD-72">
          <mxGeometry relative="1" as="geometry" />
        </mxCell>
        <mxCell id="tMEY3OnreSVDcmj0HgLD-118" style="edgeStyle=none;rounded=0;orthogonalLoop=1;jettySize=auto;html=1;exitX=0;exitY=1;exitDx=0;exitDy=0;entryX=0.944;entryY=0.244;entryDx=0;entryDy=0;entryPerimeter=0;" edge="1" parent="1" source="tMEY3OnreSVDcmj0HgLD-55" target="tMEY3OnreSVDcmj0HgLD-116">
          <mxGeometry relative="1" as="geometry" />
        </mxCell>
        <UserObject label="user" lucidchartObjectId="rdYEO5oO1D6E" id="tMEY3OnreSVDcmj0HgLD-55">
          <mxCell style="html=1;overflow=block;blockSpacing=1;whiteSpace=wrap;;whiteSpace=wrap;fontSize=13.3;fontColor=#333333;spacing=3.8;strokeColor=#5e5e5e;strokeOpacity=100;rounded=1;absoluteArcSize=1;arcSize=9;strokeWidth=2.3;" vertex="1" parent="1">
            <mxGeometry x="-261" y="-380" width="120" height="90" as="geometry" />
          </mxCell>
        </UserObject>
        <UserObject label="user name" lucidchartObjectId="8EZEE~NKDvmt" id="tMEY3OnreSVDcmj0HgLD-56">
          <mxCell style="html=1;overflow=block;blockSpacing=1;whiteSpace=wrap;ellipse;whiteSpace=wrap;fontSize=13.3;fontColor=#333333;spacing=3.8;strokeColor=#5e5e5e;strokeOpacity=100;rounded=1;absoluteArcSize=1;arcSize=9;strokeWidth=2.3;fillColor=#FFECE8;" vertex="1" parent="1">
            <mxGeometry x="-246" y="-490" width="90" height="60" as="geometry" />
          </mxCell>
        </UserObject>
        <UserObject label="status" lucidchartObjectId="8EZEE~NKDvmt" id="tMEY3OnreSVDcmj0HgLD-57">
          <mxCell style="html=1;overflow=block;blockSpacing=1;whiteSpace=wrap;ellipse;whiteSpace=wrap;fontSize=13.3;fontColor=#333333;spacing=3.8;strokeColor=#5e5e5e;strokeOpacity=100;rounded=1;absoluteArcSize=1;arcSize=9;strokeWidth=2.3;fillColor=#FFECE8;" vertex="1" parent="1">
            <mxGeometry x="-448.5" y="-365" width="90" height="60" as="geometry" />
          </mxCell>
        </UserObject>
        <mxCell id="tMEY3OnreSVDcmj0HgLD-80" style="edgeStyle=none;rounded=0;orthogonalLoop=1;jettySize=auto;html=1;exitX=0.5;exitY=0;exitDx=0;exitDy=0;entryX=0.5;entryY=1;entryDx=0;entryDy=0;" edge="1" parent="1" source="tMEY3OnreSVDcmj0HgLD-60" target="tMEY3OnreSVDcmj0HgLD-54">
          <mxGeometry relative="1" as="geometry" />
        </mxCell>
        <mxCell id="tMEY3OnreSVDcmj0HgLD-84" style="edgeStyle=none;rounded=0;orthogonalLoop=1;jettySize=auto;html=1;exitX=0.75;exitY=0;exitDx=0;exitDy=0;entryX=0.5;entryY=1;entryDx=0;entryDy=0;" edge="1" parent="1" source="tMEY3OnreSVDcmj0HgLD-60" target="tMEY3OnreSVDcmj0HgLD-83">
          <mxGeometry relative="1" as="geometry" />
        </mxCell>
        <mxCell id="tMEY3OnreSVDcmj0HgLD-86" style="edgeStyle=none;rounded=0;orthogonalLoop=1;jettySize=auto;html=1;exitX=1;exitY=0;exitDx=0;exitDy=0;entryX=0;entryY=0.5;entryDx=0;entryDy=0;" edge="1" parent="1" source="tMEY3OnreSVDcmj0HgLD-60" target="tMEY3OnreSVDcmj0HgLD-85">
          <mxGeometry relative="1" as="geometry" />
        </mxCell>
        <mxCell id="tMEY3OnreSVDcmj0HgLD-90" style="edgeStyle=none;rounded=0;orthogonalLoop=1;jettySize=auto;html=1;exitX=1;exitY=0.75;exitDx=0;exitDy=0;entryX=0;entryY=0;entryDx=0;entryDy=0;" edge="1" parent="1" source="tMEY3OnreSVDcmj0HgLD-60" target="tMEY3OnreSVDcmj0HgLD-87">
          <mxGeometry relative="1" as="geometry" />
        </mxCell>
        <mxCell id="tMEY3OnreSVDcmj0HgLD-91" style="edgeStyle=none;rounded=0;orthogonalLoop=1;jettySize=auto;html=1;exitX=1;exitY=1;exitDx=0;exitDy=0;entryX=0;entryY=0;entryDx=0;entryDy=0;" edge="1" parent="1" source="tMEY3OnreSVDcmj0HgLD-60" target="tMEY3OnreSVDcmj0HgLD-89">
          <mxGeometry relative="1" as="geometry" />
        </mxCell>
        <mxCell id="tMEY3OnreSVDcmj0HgLD-93" style="edgeStyle=none;rounded=0;orthogonalLoop=1;jettySize=auto;html=1;exitX=0.25;exitY=0;exitDx=0;exitDy=0;entryX=0.614;entryY=1.033;entryDx=0;entryDy=0;entryPerimeter=0;" edge="1" parent="1" source="tMEY3OnreSVDcmj0HgLD-60" target="tMEY3OnreSVDcmj0HgLD-92">
          <mxGeometry relative="1" as="geometry" />
        </mxCell>
        <mxCell id="tMEY3OnreSVDcmj0HgLD-276" style="edgeStyle=none;rounded=0;orthogonalLoop=1;jettySize=auto;html=1;exitX=0.5;exitY=1;exitDx=0;exitDy=0;entryX=0.5;entryY=0;entryDx=0;entryDy=0;fontSize=13.3;fontColor=#333333;" edge="1" parent="1" source="tMEY3OnreSVDcmj0HgLD-60" target="tMEY3OnreSVDcmj0HgLD-275">
          <mxGeometry relative="1" as="geometry" />
        </mxCell>
        <UserObject label="&lt;font style=&quot;font-size: 14px&quot;&gt;user role detail&lt;/font&gt;" lucidchartObjectId="rdYEO5oO1D6E" id="tMEY3OnreSVDcmj0HgLD-60">
          <mxCell style="html=1;overflow=block;blockSpacing=1;whiteSpace=wrap;;whiteSpace=wrap;fontSize=13.3;fontColor=#333333;spacing=3.8;strokeColor=#5e5e5e;strokeOpacity=100;rounded=1;absoluteArcSize=1;arcSize=9;strokeWidth=2.3;fillColor=#BAFFB0;" vertex="1" parent="1">
            <mxGeometry x="733" y="-377.5" width="120" height="90" as="geometry" />
          </mxCell>
        </UserObject>
        <UserObject label="password" lucidchartObjectId="8EZEE~NKDvmt" id="tMEY3OnreSVDcmj0HgLD-64">
          <mxCell style="html=1;overflow=block;blockSpacing=1;whiteSpace=wrap;ellipse;whiteSpace=wrap;fontSize=13.3;fontColor=#333333;spacing=3.8;strokeColor=#5e5e5e;strokeOpacity=100;rounded=1;absoluteArcSize=1;arcSize=9;strokeWidth=2.3;fillColor=#FFECE8;" vertex="1" parent="1">
            <mxGeometry x="-396" y="-470" width="90" height="60" as="geometry" />
          </mxCell>
        </UserObject>
        <mxCell id="tMEY3OnreSVDcmj0HgLD-74" value="" style="edgeStyle=none;rounded=0;orthogonalLoop=1;jettySize=auto;html=1;" edge="1" parent="1" source="tMEY3OnreSVDcmj0HgLD-72" target="tMEY3OnreSVDcmj0HgLD-25">
          <mxGeometry relative="1" as="geometry" />
        </mxCell>
        <UserObject label="assign to" lucidchartObjectId="BeYExaxkeAow" id="tMEY3OnreSVDcmj0HgLD-72">
          <mxCell style="html=1;overflow=block;blockSpacing=1;whiteSpace=wrap;shape=rhombus;whiteSpace=wrap;fontSize=13.3;fontColor=#333333;spacing=3.8;strokeColor=#5e5e5e;strokeOpacity=100;rounded=1;absoluteArcSize=1;arcSize=9;strokeWidth=2.3;" vertex="1" parent="1">
            <mxGeometry x="-20" y="-378.5" width="113" height="92" as="geometry" />
          </mxCell>
        </UserObject>
        <mxCell id="tMEY3OnreSVDcmj0HgLD-81" style="edgeStyle=none;rounded=0;orthogonalLoop=1;jettySize=auto;html=1;exitX=1;exitY=0.5;exitDx=0;exitDy=0;entryX=0;entryY=0.5;entryDx=0;entryDy=0;" edge="1" parent="1" source="tMEY3OnreSVDcmj0HgLD-77" target="tMEY3OnreSVDcmj0HgLD-60">
          <mxGeometry relative="1" as="geometry" />
        </mxCell>
        <UserObject label="contains" lucidchartObjectId="BeYExaxkeAow" id="tMEY3OnreSVDcmj0HgLD-77">
          <mxCell style="html=1;overflow=block;blockSpacing=1;whiteSpace=wrap;shape=rhombus;whiteSpace=wrap;fontSize=13.3;fontColor=#333333;spacing=3.8;strokeColor=#5e5e5e;strokeOpacity=100;rounded=1;absoluteArcSize=1;arcSize=9;strokeWidth=2.3;" vertex="1" parent="1">
            <mxGeometry x="459" y="-377.5" width="111" height="87.5" as="geometry" />
          </mxCell>
        </UserObject>
        <mxCell id="tMEY3OnreSVDcmj0HgLD-83" value="form descreption" style="ellipse;whiteSpace=wrap;html=1;rounded=1;fontSize=13.3;fontColor=#333333;strokeColor=#5e5e5e;strokeWidth=2.3;spacing=3.8;arcSize=0;fillColor=#FFECE8;" vertex="1" parent="1">
          <mxGeometry x="871" y="-530" width="120" height="60" as="geometry" />
        </mxCell>
        <mxCell id="tMEY3OnreSVDcmj0HgLD-85" value="role id" style="ellipse;whiteSpace=wrap;html=1;rounded=1;fontSize=13.3;fontColor=#333333;strokeColor=#5e5e5e;strokeWidth=2.3;spacing=3.8;arcSize=0;fillColor=#FFAABB;" vertex="1" parent="1">
          <mxGeometry x="980" y="-460" width="120" height="60" as="geometry" />
        </mxCell>
        <UserObject label="modify&lt;br&gt;permission" lucidchartObjectId="xXXEDjxQVdy_" id="tMEY3OnreSVDcmj0HgLD-87">
          <mxCell style="html=1;overflow=block;blockSpacing=1;whiteSpace=wrap;ellipse;whiteSpace=wrap;fontSize=13.3;fontColor=#333333;spacing=3.8;strokeColor=#5e5e5e;strokeOpacity=100;rounded=1;absoluteArcSize=1;arcSize=9;strokeWidth=2.3;fillColor=#FFECE8;" vertex="1" parent="1">
            <mxGeometry x="971" y="-290" width="101" height="75" as="geometry" />
          </mxCell>
        </UserObject>
        <UserObject label="delete&lt;br&gt;permission" lucidchartObjectId="xXXEDjxQVdy_" id="tMEY3OnreSVDcmj0HgLD-89">
          <mxCell style="html=1;overflow=block;blockSpacing=1;whiteSpace=wrap;ellipse;whiteSpace=wrap;fontSize=13.3;fontColor=#333333;spacing=3.8;strokeColor=#5e5e5e;strokeOpacity=100;rounded=1;absoluteArcSize=1;arcSize=9;strokeWidth=2.3;fillColor=#FFECE8;" vertex="1" parent="1">
            <mxGeometry x="884.5" y="-226" width="101" height="75" as="geometry" />
          </mxCell>
        </UserObject>
        <mxCell id="tMEY3OnreSVDcmj0HgLD-98" style="edgeStyle=orthogonalEdgeStyle;rounded=0;orthogonalLoop=1;jettySize=auto;html=1;exitX=0.5;exitY=0;exitDx=0;exitDy=0;entryX=0.5;entryY=1;entryDx=0;entryDy=0;" edge="1" parent="1" source="tMEY3OnreSVDcmj0HgLD-95" target="tMEY3OnreSVDcmj0HgLD-55">
          <mxGeometry relative="1" as="geometry" />
        </mxCell>
        <UserObject label="belongs to" lucidchartObjectId="s8XE7RQrK3FT" id="tMEY3OnreSVDcmj0HgLD-95">
          <mxCell style="html=1;overflow=block;blockSpacing=1;whiteSpace=wrap;shape=rhombus;whiteSpace=wrap;fontSize=13.3;fontColor=#333333;spacing=3.8;strokeColor=#5e5e5e;strokeOpacity=100;rounded=1;absoluteArcSize=1;arcSize=9;strokeWidth=2.3;" vertex="1" parent="1">
            <mxGeometry x="195.5" y="-110" width="120" height="91.5" as="geometry" />
          </mxCell>
        </UserObject>
        <mxCell id="tMEY3OnreSVDcmj0HgLD-97" style="edgeStyle=none;rounded=0;orthogonalLoop=1;jettySize=auto;html=1;entryX=0.5;entryY=1;entryDx=0;entryDy=0;" edge="1" parent="1" source="tMEY3OnreSVDcmj0HgLD-95" target="tMEY3OnreSVDcmj0HgLD-95">
          <mxGeometry relative="1" as="geometry" />
        </mxCell>
        <UserObject label="evaluator id" lucidchartObjectId="xXXEDjxQVdy_" id="tMEY3OnreSVDcmj0HgLD-100">
          <mxCell style="html=1;overflow=block;blockSpacing=1;whiteSpace=wrap;ellipse;whiteSpace=wrap;fontSize=13.3;fontColor=#333333;spacing=3.8;strokeColor=#5e5e5e;strokeOpacity=100;rounded=1;absoluteArcSize=1;arcSize=9;strokeWidth=2.3;fillColor=#FFAABB;" vertex="1" parent="1">
            <mxGeometry x="459.5" y="660" width="101" height="75" as="geometry" />
          </mxCell>
        </UserObject>
        <mxCell id="tMEY3OnreSVDcmj0HgLD-102" value="balance" style="ellipse;whiteSpace=wrap;html=1;rounded=1;fontSize=13.3;fontColor=#333333;strokeColor=#5e5e5e;strokeWidth=2.3;spacing=3.8;arcSize=9;fillColor=#FFECE8;" vertex="1" parent="1">
          <mxGeometry x="-128" y="-61" width="120" height="60" as="geometry" />
        </mxCell>
        <mxCell id="tMEY3OnreSVDcmj0HgLD-106" value="availed" style="ellipse;whiteSpace=wrap;html=1;rounded=1;fontSize=13.3;fontColor=#333333;strokeColor=#5e5e5e;strokeWidth=2.3;spacing=3.8;arcSize=9;fillColor=#FFECE8;" vertex="1" parent="1">
          <mxGeometry x="-170" y="30" width="120" height="60" as="geometry" />
        </mxCell>
        <UserObject label="is leave approved" lucidchartObjectId="DgYECu96Q96g" id="tMEY3OnreSVDcmj0HgLD-112">
          <mxCell style="html=1;overflow=block;blockSpacing=1;whiteSpace=wrap;ellipse;whiteSpace=wrap;fontSize=13.3;fontColor=#333333;spacing=3.8;strokeColor=#5e5e5e;strokeOpacity=100;rounded=1;absoluteArcSize=1;arcSize=9;strokeWidth=2.3;fillColor=#FFECE8;" vertex="1" parent="1">
            <mxGeometry x="-180" y="308" width="105" height="75" as="geometry" />
          </mxCell>
        </UserObject>
        <UserObject label="emp id" lucidchartObjectId="8EZEE~NKDvmt" id="tMEY3OnreSVDcmj0HgLD-116">
          <mxCell style="html=1;overflow=block;blockSpacing=1;whiteSpace=wrap;ellipse;whiteSpace=wrap;fontSize=13.3;fontColor=#333333;spacing=3.8;strokeColor=#5e5e5e;strokeOpacity=100;rounded=1;absoluteArcSize=1;arcSize=9;strokeWidth=2.3;fillColor=#FFAABB;" vertex="1" parent="1">
            <mxGeometry x="-396" y="-282.5" width="90" height="60" as="geometry" />
          </mxCell>
        </UserObject>
        <UserObject label="&lt;font style=&quot;font-size: 14px&quot;&gt;leaves&lt;/font&gt;" lucidchartObjectId="idYEzEqBZMhF" id="tMEY3OnreSVDcmj0HgLD-124">
          <mxCell style="html=1;overflow=block;blockSpacing=1;whiteSpace=wrap;;whiteSpace=wrap;fontSize=13.3;fontColor=#333333;spacing=3.8;strokeColor=#5e5e5e;strokeOpacity=100;rounded=1;absoluteArcSize=1;arcSize=9;strokeWidth=2.3;fillColor=#BAFFB0;" vertex="1" parent="1">
            <mxGeometry x="-328" y="-76" width="120" height="90" as="geometry" />
          </mxCell>
        </UserObject>
        <UserObject label="&lt;font style=&quot;font-size: 14px&quot;&gt;user&lt;/font&gt;" lucidchartObjectId="rdYEO5oO1D6E" id="tMEY3OnreSVDcmj0HgLD-125">
          <mxCell style="html=1;overflow=block;blockSpacing=1;whiteSpace=wrap;;whiteSpace=wrap;fontSize=13.3;fontColor=#333333;spacing=3.8;strokeColor=#5e5e5e;strokeOpacity=100;rounded=1;absoluteArcSize=1;arcSize=9;strokeWidth=2.3;fillColor=#BAFFB0;" vertex="1" parent="1">
            <mxGeometry x="-261" y="-380" width="120" height="90" as="geometry" />
          </mxCell>
        </UserObject>
        <mxCell id="tMEY3OnreSVDcmj0HgLD-280" style="edgeStyle=none;rounded=0;orthogonalLoop=1;jettySize=auto;html=1;exitX=0;exitY=0.75;exitDx=0;exitDy=0;entryX=1;entryY=0.5;entryDx=0;entryDy=0;fontSize=13.3;fontColor=#333333;" edge="1" parent="1" source="tMEY3OnreSVDcmj0HgLD-126" target="tMEY3OnreSVDcmj0HgLD-255">
          <mxGeometry relative="1" as="geometry" />
        </mxCell>
        <mxCell id="tMEY3OnreSVDcmj0HgLD-281" value="" style="edgeStyle=none;rounded=0;orthogonalLoop=1;jettySize=auto;html=1;fontSize=13.3;fontColor=#333333;" edge="1" parent="1" source="tMEY3OnreSVDcmj0HgLD-126" target="tMEY3OnreSVDcmj0HgLD-277">
          <mxGeometry relative="1" as="geometry" />
        </mxCell>
        <mxCell id="tMEY3OnreSVDcmj0HgLD-283" style="edgeStyle=none;rounded=0;orthogonalLoop=1;jettySize=auto;html=1;exitX=1;exitY=1;exitDx=0;exitDy=0;fontSize=13.3;fontColor=#333333;" edge="1" parent="1" source="tMEY3OnreSVDcmj0HgLD-126" target="tMEY3OnreSVDcmj0HgLD-112">
          <mxGeometry relative="1" as="geometry" />
        </mxCell>
        <mxCell id="tMEY3OnreSVDcmj0HgLD-284" style="edgeStyle=none;rounded=0;orthogonalLoop=1;jettySize=auto;html=1;exitX=0.75;exitY=1;exitDx=0;exitDy=0;entryX=0;entryY=0;entryDx=0;entryDy=0;fontSize=13.3;fontColor=#333333;" edge="1" parent="1" source="tMEY3OnreSVDcmj0HgLD-126" target="tMEY3OnreSVDcmj0HgLD-282">
          <mxGeometry relative="1" as="geometry" />
        </mxCell>
        <UserObject label="&lt;font style=&quot;font-size: 14px&quot;&gt;attendence &lt;/font&gt;" lucidchartObjectId="u_XEROJRTlcH" id="tMEY3OnreSVDcmj0HgLD-126">
          <mxCell style="html=1;overflow=block;blockSpacing=1;whiteSpace=wrap;;whiteSpace=wrap;fontSize=13.3;fontColor=#333333;spacing=3.8;strokeColor=#5e5e5e;strokeOpacity=100;rounded=1;absoluteArcSize=1;arcSize=9;strokeWidth=2.3;fillColor=#BAFFB0;" vertex="1" parent="1">
            <mxGeometry x="-328" y="218" width="120" height="90" as="geometry" />
          </mxCell>
        </UserObject>
        <UserObject label="out time" lucidchartObjectId="DgYECu96Q96g" id="tMEY3OnreSVDcmj0HgLD-218">
          <mxCell style="html=1;overflow=block;blockSpacing=1;whiteSpace=wrap;ellipse;whiteSpace=wrap;fontSize=13.3;fontColor=#333333;spacing=3.8;strokeColor=#5e5e5e;strokeOpacity=100;rounded=1;absoluteArcSize=1;arcSize=9;strokeWidth=2.3;" vertex="1" parent="1">
            <mxGeometry x="-427" y="341" width="105" height="75" as="geometry" />
          </mxCell>
        </UserObject>
        <UserObject label="total" lucidchartObjectId="KgYEqpDPBExX" id="tMEY3OnreSVDcmj0HgLD-238">
          <mxCell style="html=1;overflow=block;blockSpacing=1;whiteSpace=wrap;ellipse;whiteSpace=wrap;fontSize=13.3;fontColor=#333333;spacing=3.8;strokeColor=#5e5e5e;strokeOpacity=100;rounded=1;absoluteArcSize=1;arcSize=9;strokeWidth=2.3;fillColor=#FFEDE8;" vertex="1" parent="1">
            <mxGeometry x="-485" y="30" width="105" height="75" as="geometry" />
          </mxCell>
        </UserObject>
        <UserObject label="out time" lucidchartObjectId="DgYECu96Q96g" id="tMEY3OnreSVDcmj0HgLD-241">
          <mxCell style="html=1;overflow=block;blockSpacing=1;whiteSpace=wrap;ellipse;whiteSpace=wrap;fontSize=13.3;fontColor=#333333;spacing=3.8;strokeColor=#5e5e5e;strokeOpacity=100;rounded=1;absoluteArcSize=1;arcSize=9;strokeWidth=2.3;fillColor=#FFEDE8;" vertex="1" parent="1">
            <mxGeometry x="-427" y="341" width="105" height="75" as="geometry" />
          </mxCell>
        </UserObject>
        <UserObject label="&lt;span style=&quot;font-size: 13px&quot;&gt;mobile&lt;br&gt;&amp;nbsp;number&lt;/span&gt;" lucidchartObjectId="yFZEWDsfMZRr" id="tMEY3OnreSVDcmj0HgLD-246">
          <mxCell style="html=1;overflow=block;blockSpacing=1;whiteSpace=wrap;ellipse;whiteSpace=wrap;fontSize=16.7;fontColor=#333333;spacing=3.8;strokeColor=#5E5E5E;rounded=1;absoluteArcSize=1;arcSize=9;strokeWidth=2.3;fillColor=#FFEDE8;" vertex="1" parent="1">
            <mxGeometry x="330" y="346" width="90" height="70" as="geometry" />
          </mxCell>
        </UserObject>
        <UserObject label="previous experience" lucidchartObjectId="xXXEDjxQVdy_" id="tMEY3OnreSVDcmj0HgLD-247">
          <mxCell style="html=1;overflow=block;blockSpacing=1;whiteSpace=wrap;ellipse;whiteSpace=wrap;fontSize=13.3;fontColor=#333333;spacing=3.8;strokeColor=#5e5e5e;strokeOpacity=100;rounded=1;absoluteArcSize=1;arcSize=9;strokeWidth=2.3;fillColor=#FFEDE8;" vertex="1" parent="1">
            <mxGeometry x="349" y="143" width="101" height="75" as="geometry" />
          </mxCell>
        </UserObject>
        <UserObject label="status" lucidchartObjectId="KgYEqpDPBExX" id="tMEY3OnreSVDcmj0HgLD-255">
          <mxCell style="html=1;overflow=block;blockSpacing=1;whiteSpace=wrap;ellipse;whiteSpace=wrap;fontSize=13.3;fontColor=#333333;spacing=3.8;strokeColor=#5e5e5e;strokeOpacity=100;rounded=1;absoluteArcSize=1;arcSize=9;strokeWidth=2.3;fillColor=#FFEDE8;" vertex="1" parent="1">
            <mxGeometry x="-532" y="266" width="105" height="75" as="geometry" />
          </mxCell>
        </UserObject>
        <UserObject label="desc" lucidchartObjectId="8EZEE~NKDvmt" id="tMEY3OnreSVDcmj0HgLD-259">
          <mxCell style="html=1;overflow=block;blockSpacing=1;whiteSpace=wrap;ellipse;whiteSpace=wrap;fontSize=13.3;fontColor=#333333;spacing=3.8;strokeColor=#5e5e5e;strokeOpacity=100;rounded=1;absoluteArcSize=1;arcSize=9;strokeWidth=2.3;fillColor=#FFECE8;" vertex="1" parent="1">
            <mxGeometry x="210" y="-490" width="90" height="60" as="geometry" />
          </mxCell>
        </UserObject>
        <UserObject label="role id" lucidchartObjectId="8EZEE~NKDvmt" id="tMEY3OnreSVDcmj0HgLD-260">
          <mxCell style="html=1;overflow=block;blockSpacing=1;whiteSpace=wrap;ellipse;whiteSpace=wrap;fontSize=13.3;fontColor=#333333;spacing=3.8;strokeColor=#5e5e5e;strokeOpacity=100;rounded=1;absoluteArcSize=1;arcSize=9;strokeWidth=2.3;fillColor=#FF6666;" vertex="1" parent="1">
            <mxGeometry x="380" y="-480" width="90" height="60" as="geometry" />
          </mxCell>
        </UserObject>
        <UserObject label="address" lucidchartObjectId="dXXEF-Iy0I9N" id="tMEY3OnreSVDcmj0HgLD-272">
          <mxCell style="html=1;overflow=block;blockSpacing=1;whiteSpace=wrap;ellipse;whiteSpace=wrap;fontSize=13.3;fontColor=#333333;spacing=3.8;strokeColor=#5e5e5e;strokeOpacity=100;rounded=1;absoluteArcSize=1;arcSize=9;strokeWidth=2.3;fillColor=#FFECE8;" vertex="1" parent="1">
            <mxGeometry x="98" y="80" width="105" height="65" as="geometry" />
          </mxCell>
        </UserObject>
        <UserObject label="emp id" lucidchartObjectId="wXXEbgnNHQ6W" id="tMEY3OnreSVDcmj0HgLD-273">
          <mxCell style="html=1;overflow=block;blockSpacing=1;whiteSpace=wrap;ellipse;whiteSpace=wrap;fontSize=13.3;fontColor=#333333;spacing=3.8;strokeColor=#5e5e5e;strokeOpacity=100;rounded=1;absoluteArcSize=1;arcSize=9;strokeWidth=2.3;fillColor=#FF6666;" vertex="1" parent="1">
            <mxGeometry x="30" y="375" width="105" height="60" as="geometry" />
          </mxCell>
        </UserObject>
        <UserObject label="create&lt;br&gt;permission" lucidchartObjectId="xXXEDjxQVdy_" id="tMEY3OnreSVDcmj0HgLD-275">
          <mxCell style="html=1;overflow=block;blockSpacing=1;whiteSpace=wrap;ellipse;whiteSpace=wrap;fontSize=13.3;fontColor=#333333;spacing=3.8;strokeColor=#5e5e5e;strokeOpacity=100;rounded=1;absoluteArcSize=1;arcSize=9;strokeWidth=2.3;fillColor=#FFECE8;" vertex="1" parent="1">
            <mxGeometry x="742.5" y="-252.5" width="101" height="75" as="geometry" />
          </mxCell>
        </UserObject>
        <UserObject label="holiday id" lucidchartObjectId="DgYECu96Q96g" id="tMEY3OnreSVDcmj0HgLD-277">
          <mxCell style="html=1;overflow=block;blockSpacing=1;whiteSpace=wrap;ellipse;whiteSpace=wrap;fontSize=13.3;fontColor=#333333;spacing=3.8;strokeColor=#5e5e5e;strokeOpacity=100;rounded=1;absoluteArcSize=1;arcSize=9;strokeWidth=2.3;fillColor=#FFAABB;" vertex="1" parent="1">
            <mxGeometry x="-531" y="173" width="105" height="75" as="geometry" />
          </mxCell>
        </UserObject>
        <UserObject label="leave id" lucidchartObjectId="DgYECu96Q96g" id="tMEY3OnreSVDcmj0HgLD-282">
          <mxCell style="html=1;overflow=block;blockSpacing=1;whiteSpace=wrap;ellipse;whiteSpace=wrap;fontSize=13.3;fontColor=#333333;spacing=3.8;strokeColor=#5e5e5e;strokeOpacity=100;rounded=1;absoluteArcSize=1;arcSize=9;strokeWidth=2.3;fillColor=#FFAABB;" vertex="1" parent="1">
            <mxGeometry x="-200" y="390" width="105" height="75" as="geometry" />
          </mxCell>
        </UserObject>
      </root>
    </mxGraphModel>
  </diagram>
</mxfile>
